<?xml version="1.0" encoding="utf-8"?>

<!DOCTYPE svg PUBLIC "-//W3C//DTD SVG 1.1//EN" "http://www.w3.org/Graphics/SVG/1.1/DTD/svg11.dtd">
<svg version="1.1" id="Layer_1" xmlns="http://www.w3.org/2000/svg" xmlns:xlink="http://www.w3.org/1999/xlink" x="0px" y="0px"
	 viewBox="0 0 3200 1200" enable-background="new 0 0 3200 1200" xml:space="preserve">
<g>
	<g>
		<rect x="958.261" y="534.453" fill="none" width="91.44" height="52.56"/>
		<g>
			<polygon fill="#231F20" points="886.279,642.936 1041.588,642.936 1041.588,689.003 1195.961,599.993 1041.588,510.997 
				1041.588,557.064 886.279,557.064 			"/>
		</g>
		<g>
			<polygon fill="#231F20" points="2008.223,642.936 2163.532,642.936 2163.532,689.003 2317.905,599.993 2163.532,510.997 
				2163.532,557.064 2008.223,557.064 			"/>
		</g>
		<path fill="#989898" stroke="#989898" stroke-width="0.0938" d="M401.4,256.47c69.92-3.54,140.74,12.39,202.21,45.96
			c62.12,33.72,114.57,84.93,149.77,146.22c36.97,63.92,54.63,138.73,50.41,212.43c-3.12,60.18-20.85,119.51-51.17,171.58
			c-35.93,62-89.56,113.58-152.95,147.02c-35.95,19.02-74.95,32.23-115.06,38.97c-67.79,11.38-138.67,4.52-202.77-20.42
			c-59.52-22.94-113.01-61.14-154.23-109.79c-45.59-53.57-76.12-119.87-86.67-189.45c-7.57-49.43-5.62-100.36,6.09-148.99
			c10.21-42.6,27.85-83.42,51.91-120.03c35.18-53.93,84.16-98.78,141.02-129.02C289.59,274.38,345.18,259.17,401.4,256.47
			 M390.48,264.65c-56.8,4.58-112.56,22.07-161.55,51.22c-57.56,33.97-105.77,83.55-138.08,142.06
			c-42.43,76.02-56.7,167.05-40.31,252.49c12.48,66.65,43.68,129.59,88.9,180.09c41.99,47.15,95.99,83.53,155.56,104.51
			c62.72,22.26,131.41,27.28,196.75,14.67c43.28-8.32,85.08-24.36,122.81-47.15C684.09,920.78,739.48,856,769.67,780.7
			c27.82-68.79,34.46-145.88,19.12-218.45c-13.79-66.21-46.07-128.39-92.11-177.91c-44.99-48.71-103.06-85.27-166.54-104.5
			C485.09,265.97,437.44,261.12,390.48,264.65z"/>
		<path fill="#989898" stroke="#989898" stroke-width="0.0938" d="M2758.4,256.47c42.52-2.03,85.39,2.84,126.27,14.8
			c66.68,19.25,127.73,57.26,174.72,108.32c49.89,53.89,83.89,122.37,96.2,194.81c13.92,80.13,1.78,164.63-34.86,237.31
			c-30.11,60.27-76.4,112.33-132.72,149.3c-65.2,43.13-143.91,65.35-222.03,62.76c-77.23-1.9-153.6-28.13-215.74-74.01
			c-66.41-48.51-116.54-118.89-140.38-197.63c-19.48-63.68-21.88-132.45-7.15-197.37c12.99-57.41,39.5-111.69,76.77-157.25
			c54.49-67.23,132.34-115.21,217.09-133C2716.91,260.11,2737.62,257.49,2758.4,256.47 M2747.48,264.64
			c-40.24,3.33-80,12.82-117.15,28.68c-44.72,18.94-85.65,46.69-119.91,81.1c-37.58,37.69-67.08,83.42-85.75,133.28
			c-23.12,61.37-29.66,128.85-18.96,193.54c9.15,56.21,31.4,110.22,64.45,156.59c18.36,25.86,40,49.38,64.24,69.82
			c56.1,47.59,126.46,78.13,199.59,86.33c79.77,9.38,162.42-7.65,231.81-48.17c60.39-34.9,110.7-86.94,143.54-148.48
			c39.23-72.91,53.1-159.02,39-240.58c-12.1-72.7-46.53-141.39-97.17-194.89c-46.28-49.21-106-85.67-171.03-104.02
			C2837.17,265.52,2792.02,261.34,2747.48,264.64z"/>
		<path stroke="#000000" stroke-width="0.0938" d="M1236.86,432.07c114.37-54.04,228.78-108.03,343.14-162.1
			c114.34,54.09,228.74,108.06,343.11,162.11c-0.07,8.83,0.2,17.68-0.16,26.51c-228.65-0.08-457.3-0.08-685.95-0.01
			C1236.68,449.75,1236.92,440.91,1236.86,432.07z"/>
		<path fill="#989898" stroke="#989898" stroke-width="0.0938" d="M392.48,291.63c44.58-3.15,89.81,1.79,132.43,15.4
			c69.41,21.72,131.23,66.11,174.81,124.25c23.12,30.79,41.12,65.43,52.95,102.07c22.76,69.98,22.75,147.14-0.24,217.05
			c-16.33,50.34-44.43,96.76-81.25,134.75c-36.74,38.17-82.23,67.92-132.04,86.01c-61.61,22.56-129.59,27.11-193.72,13.44
			c-62.61-13.23-121.33-44.21-167.63-88.38C127,848.37,90.93,785.03,76.22,716.78c-17.02-77.3-7.1-160.33,28.34-231.18
			c23.69-47.73,58.49-89.86,100.73-122.33C258.85,321.67,324.89,296.68,392.48,291.63 M401.46,298.6
			c-38.84,2.1-77.39,10.58-113.34,25.48c-56.32,23.12-106.06,61.74-142.84,110.21C118.05,470,98.06,511.2,86.72,554.65
			c-20.68,78.71-12.3,164.74,23.8,237.74c32.08,65.75,85.88,120.59,150.87,154.14c55.87,29.04,119.88,42.05,182.66,37.33
			c62.29-4.42,123.21-26.42,173.99-62.78c41.62-29.8,76.62-68.85,101.42-113.66c34.17-61.5,48.48-133.7,40.65-203.59
			c-7.38-68.51-36.11-134.56-81.41-186.5c-45.18-52.61-106.68-91.03-173.89-108.2C471.15,300.39,436.17,297.05,401.46,298.6z"/>
		<path fill="#989898" stroke="#989898" stroke-width="0.0938" d="M2757.32,291.31c78.42-4.64,158.09,18.65,221.9,64.43
			c56.51,40.41,100.94,97.69,125.12,162.89c29.24,77.61,29.53,165.7,0.82,243.51c-24.07,66.35-69.08,124.66-126.52,165.55
			c-63.27,45.23-142.01,68.22-219.67,64.19c-73.77-3.18-146.25-30.72-203.52-77.35c-27.82-22.47-52.14-49.23-72.03-78.93
			c-34.39-51.68-54.83-112.64-57.9-174.68c-3.74-63.23,10.27-127.41,39.98-183.36c24.05-45.54,58.41-85.54,99.51-116.54
			C2620.21,319.26,2688.14,294.43,2757.32,291.31 M2757.48,298.63c-49.58,2.75-98.59,16.12-142.43,39.49
			c-43.8,23.19-82.34,56.1-112.43,95.45c-32.4,42.28-54.67,92.29-64.35,144.68c-11.45,61.39-6.02,125.91,16.14,184.34
			c27.57,73.73,81.63,136.99,149.77,176.28c30.21,17.49,63.13,30.29,97.21,37.81c47.01,10.44,96.21,10.77,143.38,1.11
			c35.37-7.24,69.58-20.14,100.93-38.06c64.94-37.06,117.34-95.76,146.32-164.73c31.96-75.14,35.56-161.74,10.31-239.35
			c-10.66-32.71-26.18-63.84-46.07-91.91c-41.51-58.71-101.65-104.2-169.86-127.19C2845.09,302.36,2801.06,296.49,2757.48,298.63z"
			/>
		<path fill="#BFBFBF" stroke="#BFBFBF" stroke-width="0.0938" d="M422.18,404.54c19.46-0.19,38.79,5.65,55.16,16.11
			c25.68,16.32,43.87,43.12,51.72,72.33c10.87,39.48,3.64,84.08-21.05,117.03c-17.26,23.5-43.8,40.72-73.02,44.13
			c-19.8,2.5-40.28-0.96-58.06-10.04c-26.7-13.41-46.97-37.97-57.28-65.79c-14.39-38.34-10.91-83.18,10.2-118.4
			c14.88-25.11,39.19-45.13,67.74-52.32C405.63,405.63,413.89,404.52,422.18,404.54z"/>
		<path fill="#BFBFBF" stroke="#BFBFBF" stroke-width="0.0938" d="M2765.39,405.44c19.17-2.49,39.12,0.22,56.62,8.57
			c26.36,12.24,46.81,35.38,58,61.98c15.88,37.48,14.22,82.08-5.06,118.01c-13.5,25.63-36.37,46.73-64.07,55.89
			c-21.02,6.87-44.32,6.75-65.17-0.67c-26.5-9.37-48.43-29.65-61.63-54.26c-20.02-36.63-21.67-82.54-4.84-120.67
			c11.24-25.78,31.3-48.06,56.88-60.14C2745.37,409.82,2755.26,406.83,2765.39,405.44z"/>
		<path stroke="#000000" stroke-width="0.0938" d="M1303.03,470.68c184.65-0.06,369.29-0.06,553.93,0
			c-0.17,14.42-0.06,28.84-0.06,43.26c-111.63,0.23-223.27,0.03-334.9,0.1c-72.97-0.07-145.95,0.13-218.92-0.11
			C1303.1,499.52,1303.19,485.1,1303.03,470.68z"/>
		<path stroke="#000000" stroke-width="0.0938" d="M1328.3,526.18c20.88-0.03,41.76-0.03,62.65,0c3.2,112.31,6.5,224.62,9.58,336.93
			c-26.89-0.02-53.78,0-80.66-0.01C1322.76,750.79,1325.54,638.49,1328.3,526.18z"/>
		<path stroke="#000000" stroke-width="0.0938" d="M1767.83,526.15c20.89,0.05,41.79-0.05,62.69,0.05
			c3.08,112.3,6.34,224.6,9.6,336.9c-26.89,0.03-53.77,0-80.65,0.02C1762.14,750.79,1765.08,638.47,1767.83,526.15z"/>
		<path fill="#BFBFBF" stroke="#BFBFBF" stroke-width="0.0938" d="M465.88,678.92c2.24-3.52,4.37-7.13,7-10.38
			c38.08,19.09,76.01,38.47,114.08,57.57c11.24,5.71,22.54,11.3,33.68,17.2c-0.13,19.25,0.92,38.48,0.76,57.73
			c0.56,12.98,0.94,25.97,0.97,38.97c-0.18,12.99,1.13,25.96,0.78,38.95c-136.12-0.01-272.25,0-408.37,0
			c-0.28-5.76,0.27-11.5,0.68-17.23c0.47-19.92,1.91-39.79,2.36-59.71c1.3-18.5,1.23-37.08,2.64-55.57
			c55.82-25.29,111.65-50.56,167.56-75.66c13.64,21.82,26.85,43.95,39.3,66.47c3.29-3.16,5.43-7.22,7.95-10.96
			C445.53,710.55,455.58,694.66,465.88,678.92z"/>
		<path fill="#BFBFBF" stroke="#BFBFBF" stroke-width="0.0938" d="M2828.3,670.31c0.88-2.28,3.15-1,4.7-0.23
			c47.97,24.49,96.16,48.55,144.15,72.99c0.45,7.94,0.03,15.88,0.35,23.82c0.82,15.04,0.8,30.1,0.94,45.16
			c0.63,13.64,0.94,27.3,0.93,40.96c-0.15,8.65,0.91,17.27,0.63,25.92c-113.33,0.06-226.67,0.01-340,0.03
			c-22.92-0.12-45.85,0.24-68.77-0.19c2.35-44.12,3.82-88.28,6-132.41c48.06-21.61,96.06-43.36,144.09-65.03
			c7.87-3.3,15.39-7.55,23.51-10.21c2.08,1.67,2.93,4.44,4.41,6.64c11.9,19.69,23.85,39.37,34.96,59.53
			c5.06-5.8,8.76-12.64,13.07-19C2807.59,702.29,2817.81,686.21,2828.3,670.31z"/>
		<path stroke="#000000" stroke-width="0.0938" d="M1269.28,875.22c207.15-0.05,414.29-0.05,621.44,0
			c-0.13,14.41-0.02,28.83-0.06,43.24c12.41,0.05,24.82,0.05,37.23,0c-0.05,14.45-0.05,28.91,0,43.36c12.04,0,24.08-0.02,36.12,0.01
			c0.03,14.46,0.03,28.91,0,43.37c-256.01,0.04-512.01,0.03-768.02,0.01c-0.03-14.46-0.05-28.92,0.01-43.38
			c12.04-0.02,24.08-0.02,36.12,0c0.03-14.46,0.03-28.92-0.01-43.37c12.41,0.06,24.82,0.05,37.23,0.01
			C1269.3,904.05,1269.41,889.63,1269.28,875.22z"/>
		<polygon points="1621.81,526.184 1684.43,526.164 1694.04,863.104 1613.36,863.104 		"/>
		<polygon points="1474.82,526.154 1537.53,526.214 1547.15,863.114 1466.37,862.974 		"/>
	</g>
	<g>
		<path fill="none" d="M1530.622,687.184c0.706,0.567,1.427,1.127,2.162,1.682C1532.049,688.311,1531.328,687.75,1530.622,687.184z"
			/>
		<path fill="none" d="M1524.423,681.696c-0.761-0.746-1.508-1.499-2.224-2.263C1522.915,680.198,1523.662,680.95,1524.423,681.696z
			"/>
		<path fill="none" d="M1533.416,689.344c0.91,0.675,1.84,1.341,2.794,1.998C1535.257,690.685,1534.326,690.019,1533.416,689.344z"
			/>
		<path fill="none" d="M1555.355,808.668c-0.505-0.201-0.986-0.406-1.455-0.614C1554.369,808.262,1554.851,808.467,1555.355,808.668
			z"/>
		<path fill="none" d="M1553.473,807.859c-0.319-0.146-0.631-0.293-0.933-0.442C1552.841,807.566,1553.154,807.713,1553.473,807.859
			z"/>
		<path fill="none" d="M1525.047,682.3c0.658,0.631,1.33,1.256,2.02,1.874C1526.377,683.556,1525.704,682.931,1525.047,682.3z"/>
		<path fill="none" d="M1638.653,564.133c0.039,0.304,0.064,0.61,0.061,0.922C1638.718,564.743,1638.692,564.437,1638.653,564.133z"
			/>
		<path fill="none" d="M1633.324,610.774c0.118,0.092,0.239,0.178,0.358,0.268C1633.562,610.953,1633.442,610.866,1633.324,610.774z
			"/>
		<path fill="none" d="M1612.222,552c-2.509-0.027-5.116,0.084-7.847,0.371l-2.666,0.28l-0.14,15.062
			c1.578-4.998,4.901-10.023,9.979-15.073C1611.788,552.417,1612.012,552.203,1612.222,552z"/>
		<path fill="none" d="M1527.464,684.534c0.811,0.717,1.647,1.423,2.502,2.122C1529.111,685.957,1528.275,685.251,1527.464,684.534z
			"/>
		<path fill="none" d="M1552.09,807.191c-0.29-0.149-0.57-0.299-0.842-0.451C1551.52,806.891,1551.8,807.042,1552.09,807.191z"/>
		<path fill="none" d="M1541.474,747.81c-0.412-0.138-0.831-0.268-1.257-0.388C1540.643,747.541,1541.062,747.671,1541.474,747.81z"
			/>
		<path fill="none" d="M1540.094,747.39c-0.387-0.107-0.779-0.206-1.178-0.297C1539.315,747.184,1539.707,747.284,1540.094,747.39z"
			/>
		<path fill="none" d="M1638.452,563.158c0.068,0.238,0.122,0.478,0.162,0.721C1638.573,563.637,1638.519,563.396,1638.452,563.158z
			"/>
		<path fill="none" d="M1538.456,746.998c-0.293-0.062-0.587-0.123-0.886-0.177C1537.869,746.874,1538.163,746.936,1538.456,746.998
			z"/>
		<path fill="none" d="M1535.587,746.533c-0.278-0.032-0.557-0.062-0.839-0.088C1535.03,746.471,1535.309,746.501,1535.587,746.533z
			"/>
		<path fill="none" d="M1537.024,746.732c-0.279-0.045-0.558-0.089-0.842-0.127C1536.465,746.643,1536.745,746.687,1537.024,746.732
			z"/>
		<path fill="none" d="M1550.868,806.528c-0.354-0.204-0.693-0.411-1.016-0.621C1550.175,806.117,1550.515,806.324,1550.868,806.528
			z"/>
		<path fill="none" d="M1542.691,748.255c-0.273-0.108-0.551-0.207-0.83-0.306C1542.139,748.048,1542.418,748.147,1542.691,748.255z
			"/>
		<path fill="none" d="M1546.094,749.936c-0.207-0.125-0.417-0.246-0.629-0.365C1545.677,749.69,1545.887,749.811,1546.094,749.936z
			"/>
		<path fill="none" d="M1545,749.318c-0.218-0.115-0.44-0.226-0.664-0.334C1544.56,749.092,1544.782,749.202,1545,749.318z"/>
		<path fill="none" d="M1543.865,748.757c-0.236-0.108-0.476-0.21-0.717-0.311C1543.389,748.547,1543.629,748.649,1543.865,748.757z
			"/>
		<path fill="none" d="M1649.373,666.306c-0.218-0.136-0.434-0.273-0.654-0.408C1648.939,666.033,1649.156,666.17,1649.373,666.306z
			"/>
		<path fill="none" d="M1635.516,658.691c-0.265-0.128-0.532-0.256-0.8-0.384C1634.984,658.434,1635.251,658.562,1635.516,658.691z"
			/>
		<path fill="none" d="M1632.602,657.313c-0.223-0.103-0.443-0.207-0.667-0.309C1632.159,657.106,1632.379,657.21,1632.602,657.313z
			"/>
		<path fill="none" d="M1638.172,660.003c-0.127-0.064-0.257-0.127-0.384-0.191C1637.915,659.876,1638.045,659.939,1638.172,660.003
			z"/>
		<path fill="none" d="M1629.153,655.759c-0.201-0.088-0.405-0.174-0.607-0.262C1628.748,655.585,1628.952,655.671,1629.153,655.759
			z"/>
		<path fill="none" d="M1626.235,654.512c-0.291-0.122-0.582-0.243-0.874-0.364C1625.653,654.269,1625.945,654.391,1626.235,654.512
			z"/>
		<path fill="none" d="M1641.399,661.689c-0.226-0.121-0.45-0.243-0.678-0.364C1640.949,661.446,1641.173,661.568,1641.399,661.689z
			"/>
		<path fill="none" d="M1622.954,653.17c-0.198-0.079-0.394-0.159-0.593-0.239C1622.56,653.011,1622.755,653.091,1622.954,653.17z"
			/>
		<path fill="none" d="M1534.125,746.395c-0.284-0.021-0.571-0.038-0.86-0.053C1533.554,746.356,1533.841,746.374,1534.125,746.395z
			"/>
		<path fill="none" d="M1646.401,664.496c-0.028-0.017-0.057-0.033-0.086-0.05C1646.344,664.463,1646.373,664.479,1646.401,664.496z
			"/>
		<path fill="none" d="M1636.04,559.389c0.262,0.251,0.51,0.505,0.733,0.763C1636.55,559.894,1636.302,559.64,1636.04,559.389z"/>
		<path fill="none" d="M1619.336,651.76c-0.255-0.097-0.515-0.193-0.772-0.289C1618.822,651.568,1619.081,651.663,1619.336,651.76z"
			/>
		<path fill="none" d="M1635.07,558.547c0.259,0.205,0.503,0.413,0.734,0.624C1635.573,558.96,1635.328,558.752,1635.07,558.547z"/>
		<path fill="none" d="M1636.803,560.184c0.23,0.268,0.433,0.542,0.622,0.818C1637.236,560.725,1637.033,560.452,1636.803,560.184z"
			/>
		<path fill="none" d="M1637.574,561.232c0.142,0.222,0.27,0.447,0.385,0.674C1637.844,561.679,1637.716,561.454,1637.574,561.232z"
			/>
		<path fill="none" d="M1633.841,557.654c0.365,0.242,0.71,0.487,1.034,0.736C1634.552,558.14,1634.206,557.895,1633.841,557.654z"
			/>
		<path fill="none" d="M1638.06,562.101c0.134,0.284,0.247,0.572,0.339,0.864C1638.307,562.672,1638.193,562.385,1638.06,562.101z"
			/>
		<path fill="none" d="M1612.407,649.251c-0.137-0.047-0.272-0.096-0.41-0.143C1612.135,649.156,1612.27,649.204,1612.407,649.251z"
			/>
		<path fill="none" d="M1616.157,650.582c-0.314-0.114-0.629-0.228-0.945-0.342C1615.529,650.354,1615.843,650.468,1616.157,650.582
			z"/>
		<path fill="none" d="M1608.728,648.009c-0.303-0.1-0.609-0.199-0.914-0.298C1608.119,647.811,1608.425,647.909,1608.728,648.009z"
			/>
		<path fill="none" d="M1605.263,646.894c-0.325-0.103-0.65-0.206-0.978-0.308C1604.613,646.688,1604.938,646.791,1605.263,646.894z
			"/>
		<path fill="none" d="M1643.998,663.115c-0.236-0.133-0.474-0.264-0.712-0.397C1643.524,662.851,1643.762,662.983,1643.998,663.115
			z"/>
		<path fill="none" d="M1558.727,624.16l0.543-58.315c-2.88,1.897-5.485,3.992-7.802,6.294c-7.688,7.629-11.574,16.611-11.67,26.955
			c-0.079,8.446,2.001,15.573,6.222,21.395C1549.871,621.848,1554.102,623.073,1558.727,624.16z"/>
		<path fill="none" d="M1633.89,732.072c0.192,0.128,0.379,0.256,0.566,0.384C1634.269,732.328,1634.082,732.2,1633.89,732.072z"/>
		<path fill="none" d="M1514.637,814.666c0.423,0.317,0.858,0.628,1.297,0.937C1515.495,815.294,1515.06,814.983,1514.637,814.666z"
			/>
		<path fill="none" d="M1530.135,746.309c0.321-0.008,0.641-0.016,0.957-0.017C1530.776,746.293,1530.456,746.3,1530.135,746.309z"
			/>
		<path fill="none" d="M1509.252,810.009c-0.349-0.351-0.69-0.705-1.023-1.063C1508.563,809.304,1508.903,809.659,1509.252,810.009z
			"/>
		<path fill="none" d="M1635.429,733.141c0.179,0.13,0.359,0.26,0.532,0.39C1635.788,733.401,1635.609,733.271,1635.429,733.141z"/>
		<path fill="none" d="M1624.232,743.84c0.072-7.734-1.928-14.304-5.981-19.721c-5.236-2.148-11.255-4.278-18.079-6.391
			l-0.609,65.353c4.518-2.702,8.469-5.724,11.832-9.077C1619.846,765.562,1624.123,755.511,1624.232,743.84z"/>
		<path fill="none" d="M1580.474,639.437c-0.248-0.063-0.492-0.127-0.738-0.191C1579.982,639.31,1580.226,639.374,1580.474,639.437z
			"/>
		<path fill="none" d="M1636.897,734.254c0.142,0.113,0.289,0.225,0.426,0.338C1637.185,734.479,1637.038,734.366,1636.897,734.254z
			"/>
		<path fill="none" d="M1556.15,629.736c-0.137-0.087-0.277-0.173-0.412-0.261C1555.873,629.563,1556.013,629.649,1556.15,629.736z"
			/>
		<path fill="none" d="M1559.492,631.694c-0.128-0.069-0.251-0.14-0.378-0.21C1559.24,631.554,1559.363,631.625,1559.492,631.694z"
			/>
		<path fill="none" d="M1563.656,633.742c-0.203-0.091-0.404-0.183-0.604-0.275C1563.252,633.559,1563.454,633.65,1563.656,633.742z
			"/>
		<path fill="none" d="M1565.598,634.587c-0.171-0.072-0.337-0.145-0.506-0.217C1565.261,634.443,1565.427,634.516,1565.598,634.587
			z"/>
		<path fill="none" d="M1577.953,638.77c-0.249-0.068-0.499-0.137-0.746-0.206C1577.454,638.634,1577.704,638.702,1577.953,638.77z"
			/>
		<path fill="none" d="M1561.653,632.8c-0.144-0.071-0.292-0.14-0.435-0.212C1561.36,632.659,1561.508,632.729,1561.653,632.8z"/>
		<path fill="none" d="M1575.136,637.964c-0.094-0.028-0.191-0.055-0.284-0.084C1574.945,637.908,1575.042,637.935,1575.136,637.964
			z"/>
		<path fill="none" d="M1567.989,635.541c-0.132-0.051-0.268-0.1-0.399-0.151C1567.721,635.441,1567.857,635.49,1567.989,635.541z"
			/>
		<path fill="none" d="M1572.594,637.169c-0.212-0.069-0.419-0.14-0.628-0.209C1572.175,637.029,1572.382,637.1,1572.594,637.169z"
			/>
		<path fill="none" d="M1570.364,636.411c-0.226-0.08-0.453-0.159-0.677-0.24C1569.911,636.252,1570.137,636.332,1570.364,636.411z"
			/>
		<path fill="none" d="M1557.824,630.756c-0.171-0.1-0.34-0.2-0.508-0.3C1557.484,630.556,1557.653,630.656,1557.824,630.756z"/>
		<path fill="none" d="M1498.464,790.126c0.104,0.507,0.203,1.016,0.325,1.514C1498.667,791.142,1498.568,790.632,1498.464,790.126z
			"/>
		<path fill="none" d="M1499.102,792.782c0.133,0.479,0.261,0.959,0.411,1.43C1499.363,793.741,1499.234,793.26,1499.102,792.782z"
			/>
		<path fill="none" d="M1497.993,787.357c0.075,0.547,0.144,1.096,0.238,1.634C1498.137,788.453,1498.068,787.904,1497.993,787.357z
			"/>
		<path fill="none" d="M1499.906,795.341c0.161,0.456,0.32,0.914,0.498,1.362C1500.226,796.255,1500.067,795.798,1499.906,795.341z"
			/>
		<path fill="none" d="M1527.899,746.416c-0.546,0.04-1.097,0.088-1.657,0.147C1526.802,746.504,1527.354,746.456,1527.899,746.416z
			"/>
		<path fill="none" d="M1532.628,746.315c-0.295-0.01-0.594-0.015-0.895-0.018C1532.034,746.3,1532.333,746.305,1532.628,746.315z"
			/>
		<path fill="none" d="M1529.517,746.326c-0.357,0.014-0.72,0.036-1.083,0.059C1528.797,746.362,1529.16,746.34,1529.517,746.326z"
			/>
		<path fill="none" d="M1497.558,780.571c-0.009,0.975,0.011,1.936,0.058,2.885C1497.57,782.507,1497.549,781.546,1497.558,780.571z
			"/>
		<path fill="none" d="M1497.689,784.396c0.043,0.625,0.084,1.252,0.151,1.866C1497.773,785.648,1497.732,785.022,1497.689,784.396z
			"/>
		<path fill="none" d="M1506.426,806.881c0.304,0.372,0.614,0.743,0.934,1.108C1507.04,807.623,1506.73,807.253,1506.426,806.881z"
			/>
		<path fill="none" d="M1512.334,812.838c0.393,0.331,0.797,0.656,1.205,0.98C1513.131,813.495,1512.727,813.169,1512.334,812.838z"
			/>
		<path fill="none" d="M1510.199,810.932c0.363,0.344,0.734,0.684,1.113,1.021C1510.933,811.616,1510.562,811.276,1510.199,810.932z
			"/>
		<path fill="none" d="M1504.79,804.737c0.275,0.387,0.554,0.772,0.845,1.151C1505.344,805.509,1505.065,805.124,1504.79,804.737z"
			/>
		<path fill="none" d="M1503.319,802.511c0.246,0.402,0.495,0.803,0.757,1.198C1503.814,803.314,1503.565,802.913,1503.319,802.511z
			"/>
		<path fill="none" d="M1502.015,800.203c0.218,0.419,0.437,0.838,0.671,1.25C1502.451,801.041,1502.233,800.622,1502.015,800.203z"
			/>
		<path fill="none" d="M1500.877,797.814c0.19,0.437,0.378,0.875,0.584,1.304C1501.255,798.689,1501.067,798.251,1500.877,797.814z"
			/>
		<linearGradient id="SVGID_1_" gradientUnits="userSpaceOnUse" x1="1559.3298" y1="874.7319" x2="1583.6593" y2="832.5921">
			<stop  offset="0" style="stop-color:#9C420F"/>
			<stop  offset="0.1576" style="stop-color:#EE6321"/>
			<stop  offset="0.2028" style="stop-color:#EF6720"/>
			<stop  offset="0.2526" style="stop-color:#F0751D"/>
			<stop  offset="0.3045" style="stop-color:#F38B18"/>
			<stop  offset="0.3579" style="stop-color:#F6AA11"/>
			<stop  offset="0.412" style="stop-color:#FBD108"/>
			<stop  offset="0.45" style="stop-color:#FFF101"/>
			<stop  offset="0.55" style="stop-color:#FFF101"/>
			<stop  offset="0.5578" style="stop-color:#FEEC02"/>
			<stop  offset="0.6334" style="stop-color:#F9BB0D"/>
			<stop  offset="0.705" style="stop-color:#F49516"/>
			<stop  offset="0.7708" style="stop-color:#F1791C"/>
			<stop  offset="0.8288" style="stop-color:#EF6920"/>
			<stop  offset="0.8727" style="stop-color:#EE6321"/>
			<stop  offset="1" style="stop-color:#CC5312"/>
		</linearGradient>
		<path fill="url(#SVGID_1_)" d="M1556.812,829.734l-0.386,41.44l24.277,15.898l0.52-55.886
			C1572.428,831.192,1564.3,830.702,1556.812,829.734z"/>
		<linearGradient id="SVGID_2_" gradientUnits="userSpaceOnUse" x1="1598.2373" y1="808.3895" x2="1640.2537" y2="735.6151">
			<stop  offset="0" style="stop-color:#9C420F"/>
			<stop  offset="0.1576" style="stop-color:#EE6321"/>
			<stop  offset="0.2028" style="stop-color:#EF6720"/>
			<stop  offset="0.2526" style="stop-color:#F0751D"/>
			<stop  offset="0.3045" style="stop-color:#F38B18"/>
			<stop  offset="0.3579" style="stop-color:#F6AA11"/>
			<stop  offset="0.412" style="stop-color:#FBD108"/>
			<stop  offset="0.45" style="stop-color:#FFF101"/>
			<stop  offset="0.55" style="stop-color:#FFF101"/>
			<stop  offset="0.5578" style="stop-color:#FEEC02"/>
			<stop  offset="0.6334" style="stop-color:#F9BB0D"/>
			<stop  offset="0.705" style="stop-color:#F49516"/>
			<stop  offset="0.7708" style="stop-color:#F1791C"/>
			<stop  offset="0.8288" style="stop-color:#EF6920"/>
			<stop  offset="0.8727" style="stop-color:#EE6321"/>
			<stop  offset="1" style="stop-color:#A1420E"/>
		</linearGradient>
		<path fill="url(#SVGID_2_)" d="M1638.555,735.65c-0.389-0.353-0.803-0.706-1.233-1.058c-0.137-0.113-0.284-0.225-0.426-0.338
			c-0.303-0.241-0.613-0.482-0.935-0.723c-0.174-0.13-0.353-0.26-0.532-0.39c-0.316-0.229-0.641-0.457-0.974-0.685
			c-0.187-0.128-0.373-0.256-0.566-0.384c-4.027-2.678-9.243-5.329-15.639-7.953c4.053,5.417,6.053,11.987,5.981,19.721
			c-0.109,11.67-4.386,21.722-12.837,30.163c-3.363,3.353-7.313,6.375-11.832,9.077l-0.242,25.935
			c15.774-4.301,27.891-10.68,36.35-19.114c8.452-8.441,12.729-18.493,12.837-30.163
			C1648.601,749.793,1645.283,741.763,1638.555,735.65z"/>
		<linearGradient id="SVGID_3_" gradientUnits="userSpaceOnUse" x1="1576.8394" y1="798.9506" x2="1548.3094" y2="809.3347">
			<stop  offset="0" style="stop-color:#9C420F"/>
			<stop  offset="0.1576" style="stop-color:#EE6321"/>
			<stop  offset="0.2028" style="stop-color:#EF6720"/>
			<stop  offset="0.2526" style="stop-color:#F0751D"/>
			<stop  offset="0.3045" style="stop-color:#F38B18"/>
			<stop  offset="0.3579" style="stop-color:#F6AA11"/>
			<stop  offset="0.412" style="stop-color:#FBD108"/>
			<stop  offset="0.45" style="stop-color:#FFF101"/>
			<stop  offset="0.55" style="stop-color:#FFF101"/>
			<stop  offset="0.5578" style="stop-color:#FEEC02"/>
			<stop  offset="0.6334" style="stop-color:#F9BB0D"/>
			<stop  offset="0.705" style="stop-color:#F49516"/>
			<stop  offset="0.7708" style="stop-color:#F1791C"/>
			<stop  offset="0.8288" style="stop-color:#EF6920"/>
			<stop  offset="0.8727" style="stop-color:#EE6321"/>
			<stop  offset="1" style="stop-color:#A1420E"/>
		</linearGradient>
		<path fill="url(#SVGID_3_)" d="M1549.852,805.907c0.323,0.209,0.663,0.416,1.016,0.621c0.123,0.071,0.253,0.141,0.379,0.211
			c0.273,0.152,0.552,0.302,0.842,0.451c0.148,0.076,0.298,0.152,0.45,0.227c0.302,0.149,0.614,0.296,0.933,0.442
			c0.143,0.065,0.282,0.131,0.428,0.196c0.469,0.207,0.95,0.412,1.455,0.614c7.078,2.833,15.761,3.781,26.051,2.831l-24.276-15.898
			c-3.85,0.356-7.474,0.445-10.875,0.27c-0.976,1.59-1.467,2.451-1.468,2.582C1544.762,801.214,1546.452,803.7,1549.852,805.907z"/>
		<linearGradient id="SVGID_4_" gradientUnits="userSpaceOnUse" x1="1549.1783" y1="792.8921" x2="1592.5579" y2="717.7565">
			<stop  offset="0" style="stop-color:#87390D"/>
			<stop  offset="0.1576" style="stop-color:#D95A1E"/>
			<stop  offset="0.2048" style="stop-color:#DA5E1D"/>
			<stop  offset="0.2568" style="stop-color:#DB6C1A"/>
			<stop  offset="0.311" style="stop-color:#DE8215"/>
			<stop  offset="0.3668" style="stop-color:#E2A10E"/>
			<stop  offset="0.4233" style="stop-color:#E7C806"/>
			<stop  offset="0.45" style="stop-color:#EADD01"/>
			<stop  offset="0.55" style="stop-color:#EADD01"/>
			<stop  offset="0.6216" style="stop-color:#E4B20B"/>
			<stop  offset="0.6964" style="stop-color:#DF8C13"/>
			<stop  offset="0.7656" style="stop-color:#DC7019"/>
			<stop  offset="0.8265" style="stop-color:#DA601D"/>
			<stop  offset="0.8727" style="stop-color:#D95A1E"/>
			<stop  offset="1" style="stop-color:#8C390C"/>
		</linearGradient>
		<path fill="url(#SVGID_4_)" d="M1582.335,711.854c-8.883-2.57-16.988-5.458-24.344-8.653l-0.86,92.401l24.276,15.898
			L1582.335,711.854z"/>
		<linearGradient id="SVGID_5_" gradientUnits="userSpaceOnUse" x1="1624.4344" y1="662.876" x2="1627.9484" y2="642.9479">
			<stop  offset="0" style="stop-color:#87390D"/>
			<stop  offset="0.1576" style="stop-color:#D95A1E"/>
			<stop  offset="0.2048" style="stop-color:#DA5E1D"/>
			<stop  offset="0.2568" style="stop-color:#DB6C1A"/>
			<stop  offset="0.311" style="stop-color:#DE8215"/>
			<stop  offset="0.3668" style="stop-color:#E2A10E"/>
			<stop  offset="0.4233" style="stop-color:#E7C806"/>
			<stop  offset="0.45" style="stop-color:#EADD01"/>
			<stop  offset="0.55" style="stop-color:#EADD01"/>
			<stop  offset="0.6216" style="stop-color:#E4B20B"/>
			<stop  offset="0.6964" style="stop-color:#DF8C13"/>
			<stop  offset="0.7656" style="stop-color:#DC7019"/>
			<stop  offset="0.8265" style="stop-color:#DA601D"/>
			<stop  offset="0.8727" style="stop-color:#D95A1E"/>
			<stop  offset="1" style="stop-color:#8C390C"/>
		</linearGradient>
		<path fill="url(#SVGID_5_)" d="M1604.286,646.586c0.327,0.102,0.652,0.205,0.978,0.308c0.857,0.27,1.707,0.543,2.55,0.818
			c0.305,0.099,0.611,0.198,0.914,0.298c1.101,0.363,2.192,0.729,3.269,1.099c0.138,0.047,0.272,0.096,0.41,0.143
			c0.945,0.327,1.879,0.656,2.805,0.989c0.316,0.114,0.631,0.228,0.945,0.342c0.81,0.294,1.612,0.591,2.407,0.889
			c0.257,0.096,0.516,0.192,0.772,0.289c1.02,0.387,2.028,0.777,3.024,1.171c0.199,0.079,0.395,0.159,0.593,0.239
			c0.81,0.324,1.613,0.65,2.407,0.978c0.292,0.121,0.584,0.242,0.874,0.364c0.778,0.326,1.548,0.654,2.311,0.985
			c0.202,0.087,0.406,0.174,0.607,0.262c0.939,0.411,1.866,0.826,2.782,1.245c0.224,0.102,0.444,0.206,0.667,0.309
			c0.712,0.329,1.417,0.66,2.114,0.993c0.267,0.128,0.535,0.256,0.8,0.384c0.766,0.371,1.523,0.744,2.271,1.121
			c0.127,0.064,0.258,0.127,0.384,0.191c0.862,0.437,1.711,0.878,2.55,1.323c0.228,0.121,0.452,0.242,0.678,0.364
			c0.636,0.341,1.265,0.684,1.887,1.029c0.238,0.132,0.476,0.264,0.712,0.397c0.783,0.44,1.557,0.883,2.318,1.331
			c0.028,0.017,0.057,0.033,0.086,0.05c0.786,0.463,1.556,0.931,2.318,1.402c0.22,0.135,0.436,0.272,0.654,0.408
			c0.571,0.358,1.136,0.718,1.693,1.08c0.133,0.086,0.272,0.171,0.404,0.258l-24.277-15.898
			c-7.506-4.915-16.271-9.435-26.282-13.565l-0.068,7.352C1602.004,645.88,1603.149,646.232,1604.286,646.586z"/>
		<linearGradient id="SVGID_6_" gradientUnits="userSpaceOnUse" x1="1487.4412" y1="799.3422" x2="1524.3179" y2="735.4698">
			<stop  offset="0" style="stop-color:#9C420F"/>
			<stop  offset="0.1576" style="stop-color:#EE6321"/>
			<stop  offset="0.2028" style="stop-color:#EF6720"/>
			<stop  offset="0.2526" style="stop-color:#F0751D"/>
			<stop  offset="0.3045" style="stop-color:#F38B18"/>
			<stop  offset="0.3579" style="stop-color:#F6AA11"/>
			<stop  offset="0.412" style="stop-color:#FBD108"/>
			<stop  offset="0.45" style="stop-color:#FFF101"/>
			<stop  offset="0.55" style="stop-color:#FFF101"/>
			<stop  offset="0.5578" style="stop-color:#FEEC02"/>
			<stop  offset="0.6334" style="stop-color:#F9BB0D"/>
			<stop  offset="0.705" style="stop-color:#F49516"/>
			<stop  offset="0.7708" style="stop-color:#F1791C"/>
			<stop  offset="0.8288" style="stop-color:#EF6920"/>
			<stop  offset="0.8727" style="stop-color:#EE6321"/>
			<stop  offset="1" style="stop-color:#A1420E"/>
		</linearGradient>
		<path fill="url(#SVGID_6_)" d="M1514.637,814.666c-0.373-0.279-0.737-0.563-1.098-0.848c-0.409-0.323-0.812-0.649-1.205-0.98
			c-0.347-0.292-0.687-0.588-1.022-0.885c-0.379-0.337-0.75-0.677-1.113-1.021c-0.322-0.305-0.637-0.612-0.947-0.923
			c-0.349-0.351-0.69-0.705-1.023-1.063c-0.295-0.317-0.586-0.635-0.869-0.958c-0.32-0.365-0.63-0.735-0.934-1.108
			c-0.269-0.329-0.535-0.659-0.791-0.993c-0.291-0.379-0.57-0.764-0.845-1.151c-0.242-0.341-0.484-0.682-0.714-1.028
			c-0.262-0.395-0.51-0.796-0.757-1.198c-0.215-0.351-0.431-0.701-0.634-1.058c-0.234-0.412-0.453-0.831-0.671-1.25
			c-0.187-0.36-0.378-0.719-0.553-1.085c-0.206-0.429-0.395-0.867-0.584-1.304c-0.16-0.369-0.325-0.736-0.473-1.11
			c-0.178-0.448-0.337-0.906-0.498-1.362c-0.133-0.376-0.272-0.749-0.393-1.13c-0.15-0.47-0.279-0.951-0.411-1.43
			c-0.105-0.38-0.219-0.756-0.313-1.142c-0.122-0.498-0.221-1.008-0.325-1.514c-0.077-0.378-0.165-0.752-0.232-1.135
			c-0.094-0.537-0.164-1.087-0.238-1.634c-0.05-0.366-0.112-0.725-0.153-1.095c-0.068-0.614-0.108-1.24-0.151-1.866
			c-0.022-0.315-0.057-0.623-0.073-0.94c-0.047-0.949-0.067-1.91-0.058-2.885c0.086-9.278,2.76-17.047,8.021-23.299
			c5.261-6.245,12.148-9.815,20.662-10.709c0.56-0.059,1.111-0.107,1.657-0.147c0.18-0.013,0.356-0.021,0.534-0.032
			c0.363-0.023,0.726-0.045,1.083-0.059c0.208-0.008,0.412-0.011,0.618-0.017c0.321-0.008,0.641-0.016,0.957-0.017
			c0.216-0.001,0.429,0.002,0.642,0.005c0.3,0.003,0.599,0.008,0.895,0.018c0.214,0.007,0.426,0.017,0.637,0.027
			c0.289,0.015,0.576,0.032,0.86,0.053c0.209,0.015,0.417,0.032,0.623,0.05c0.282,0.026,0.561,0.056,0.839,0.088
			c0.199,0.023,0.398,0.046,0.594,0.072c0.284,0.038,0.563,0.082,0.842,0.127c0.182,0.029,0.366,0.057,0.547,0.089
			c0.299,0.054,0.593,0.115,0.886,0.177c0.153,0.032,0.309,0.061,0.46,0.096c0.399,0.091,0.791,0.191,1.178,0.297
			c0.041,0.011,0.083,0.02,0.123,0.032c0.426,0.119,0.845,0.249,1.257,0.388c0.131,0.044,0.257,0.093,0.386,0.139
			c0.279,0.099,0.558,0.198,0.83,0.306c0.155,0.061,0.305,0.127,0.457,0.191c0.241,0.101,0.481,0.203,0.717,0.311
			c0.159,0.073,0.315,0.15,0.472,0.226c0.223,0.109,0.445,0.219,0.664,0.334c0.156,0.083,0.311,0.168,0.465,0.254
			c0.212,0.118,0.422,0.24,0.629,0.365c0.151,0.091,0.302,0.183,0.45,0.278c0.084,0.053,0.171,0.103,0.255,0.157l-24.277-15.898
			c-5.238-3.43-12.09-4.698-20.557-3.808c-8.514,0.895-15.401,4.465-20.662,10.71c-5.261,6.252-7.935,14.02-8.021,23.299
			c-0.142,15.28,6.535,27.339,20.03,36.177l24.276,15.898c-0.166-0.109-0.318-0.224-0.482-0.333
			c-0.399-0.267-0.786-0.539-1.173-0.811C1515.495,815.294,1515.06,814.983,1514.637,814.666z"/>
		<linearGradient id="SVGID_7_" gradientUnits="userSpaceOnUse" x1="1612.4711" y1="598.935" x2="1635.709" y2="558.6858">
			<stop  offset="0" style="stop-color:#9C420F"/>
			<stop  offset="0.1576" style="stop-color:#EE6321"/>
			<stop  offset="0.2028" style="stop-color:#EF6720"/>
			<stop  offset="0.2526" style="stop-color:#F0751D"/>
			<stop  offset="0.3045" style="stop-color:#F38B18"/>
			<stop  offset="0.3579" style="stop-color:#F6AA11"/>
			<stop  offset="0.412" style="stop-color:#FBD108"/>
			<stop  offset="0.45" style="stop-color:#FFF101"/>
			<stop  offset="0.55" style="stop-color:#FFF101"/>
			<stop  offset="0.5578" style="stop-color:#FEEC02"/>
			<stop  offset="0.6334" style="stop-color:#F9BB0D"/>
			<stop  offset="0.705" style="stop-color:#F49516"/>
			<stop  offset="0.7708" style="stop-color:#F1791C"/>
			<stop  offset="0.8288" style="stop-color:#EF6920"/>
			<stop  offset="0.8727" style="stop-color:#EE6321"/>
			<stop  offset="1" style="stop-color:#A1420E"/>
		</linearGradient>
		<path fill="url(#SVGID_7_)" d="M1638.653,564.133c-0.011-0.085-0.025-0.169-0.039-0.253c-0.041-0.243-0.095-0.483-0.162-0.721
			c-0.018-0.064-0.032-0.13-0.053-0.194c-0.092-0.292-0.206-0.579-0.339-0.864c-0.031-0.065-0.068-0.129-0.1-0.194
			c-0.115-0.227-0.243-0.452-0.385-0.674c-0.049-0.077-0.097-0.154-0.15-0.231c-0.189-0.276-0.391-0.549-0.622-0.818
			c-0.009-0.011-0.02-0.021-0.029-0.032c-0.223-0.258-0.471-0.512-0.733-0.763c-0.076-0.073-0.156-0.146-0.236-0.219
			c-0.231-0.21-0.476-0.419-0.734-0.624c-0.066-0.052-0.127-0.105-0.194-0.157c-0.324-0.249-0.669-0.494-1.034-0.736
			c-1.427-0.944-3.163-1.832-5.217-2.661c-4.8-1.941-10.276-2.926-16.402-2.993c-0.21,0.204-0.435,0.417-0.675,0.64
			c-5.078,5.051-8.401,10.075-9.979,15.073l-0.141,15.135c1.133,4.533,3.297,8.234,6.503,11.1c0.795,0.713,1.634,1.359,2.516,1.937
			l24.276,15.898c-0.072-0.047-0.139-0.102-0.21-0.15c-0.282-0.19-0.558-0.387-0.831-0.591c-0.119-0.089-0.24-0.176-0.358-0.268
			c-0.38-0.297-0.755-0.604-1.117-0.929c-5.036-4.503-7.514-11.057-7.434-19.682c0.067-7.154,3.748-14.363,11.051-21.626
			c1.925-1.788,2.886-2.954,2.891-3.483C1638.718,564.743,1638.692,564.437,1638.653,564.133z"/>
		<linearGradient id="SVGID_8_" gradientUnits="userSpaceOnUse" x1="1583.0032" y1="630.2737" x2="1546.0188" y2="630.2737">
			<stop  offset="0" style="stop-color:#9C420F"/>
			<stop  offset="0.1576" style="stop-color:#EE6321"/>
			<stop  offset="0.2028" style="stop-color:#EF6720"/>
			<stop  offset="0.2526" style="stop-color:#F0751D"/>
			<stop  offset="0.3045" style="stop-color:#F38B18"/>
			<stop  offset="0.3579" style="stop-color:#F6AA11"/>
			<stop  offset="0.412" style="stop-color:#FBD108"/>
			<stop  offset="0.45" style="stop-color:#FFF101"/>
			<stop  offset="0.55" style="stop-color:#FFF101"/>
			<stop  offset="0.5578" style="stop-color:#FEEC02"/>
			<stop  offset="0.6334" style="stop-color:#F9BB0D"/>
			<stop  offset="0.705" style="stop-color:#F49516"/>
			<stop  offset="0.7708" style="stop-color:#F1791C"/>
			<stop  offset="0.8288" style="stop-color:#EF6920"/>
			<stop  offset="0.8727" style="stop-color:#EE6321"/>
			<stop  offset="1" style="stop-color:#A1420E"/>
		</linearGradient>
		<path fill="url(#SVGID_8_)" d="M1546.019,620.49c1.147,1.583,2.444,3.074,3.909,4.463c1.684,1.596,3.623,3.103,5.81,4.523
			c0.135,0.088,0.275,0.174,0.412,0.261c0.381,0.242,0.77,0.482,1.166,0.719c0.168,0.101,0.337,0.201,0.508,0.3
			c0.422,0.246,0.852,0.488,1.29,0.728c0.127,0.07,0.25,0.14,0.378,0.21c0.562,0.303,1.137,0.601,1.726,0.894
			c0.143,0.071,0.291,0.141,0.435,0.212c0.459,0.225,0.925,0.447,1.4,0.667c0.2,0.092,0.401,0.184,0.604,0.275
			c0.471,0.212,0.95,0.422,1.435,0.629c0.169,0.072,0.335,0.145,0.506,0.217c0.651,0.272,1.314,0.54,1.992,0.803
			c0.131,0.051,0.267,0.1,0.399,0.151c0.557,0.213,1.123,0.423,1.698,0.63c0.224,0.081,0.45,0.16,0.677,0.24
			c0.527,0.185,1.061,0.368,1.602,0.548c0.209,0.07,0.417,0.14,0.628,0.209c0.74,0.241,1.491,0.479,2.258,0.711
			c0.094,0.028,0.19,0.055,0.284,0.084c0.68,0.204,1.371,0.404,2.072,0.601c0.247,0.069,0.497,0.137,0.746,0.206
			c0.587,0.161,1.182,0.32,1.783,0.476c0.246,0.064,0.49,0.128,0.738,0.191c0.831,0.211,1.671,0.419,2.529,0.621l-24.277-15.898
			C1554.102,623.073,1549.871,621.848,1546.019,620.49z"/>
		<linearGradient id="SVGID_9_" gradientUnits="userSpaceOnUse" x1="1623.5178" y1="546.4482" x2="1633.7156" y2="528.7852">
			<stop  offset="0" style="stop-color:#A1420E"/>
			<stop  offset="0.1273" style="stop-color:#EE6321"/>
			<stop  offset="0.1712" style="stop-color:#EF6920"/>
			<stop  offset="0.2292" style="stop-color:#F1791C"/>
			<stop  offset="0.295" style="stop-color:#F49516"/>
			<stop  offset="0.3666" style="stop-color:#F9BB0D"/>
			<stop  offset="0.4422" style="stop-color:#FEEC02"/>
			<stop  offset="0.45" style="stop-color:#FFF101"/>
			<stop  offset="0.55" style="stop-color:#FFF101"/>
			<stop  offset="0.588" style="stop-color:#FBD108"/>
			<stop  offset="0.6421" style="stop-color:#F6AA11"/>
			<stop  offset="0.6955" style="stop-color:#F38B18"/>
			<stop  offset="0.7474" style="stop-color:#F0751D"/>
			<stop  offset="0.7972" style="stop-color:#EF6720"/>
			<stop  offset="0.8424" style="stop-color:#EE6321"/>
		</linearGradient>
		<path fill="url(#SVGID_9_)" d="M1659.355,545.498c0.557,0.342,1.103,0.688,1.639,1.039l-24.276-15.898
			c-0.536-0.351-1.082-0.697-1.639-1.039c-9.308-5.715-20.328-9.354-33.054-10.926l-0.142,15.282
			C1625.372,532.553,1644.532,536.397,1659.355,545.498z"/>
		<linearGradient id="SVGID_10_" gradientUnits="userSpaceOnUse" x1="1558.0356" y1="625.6428" x2="1594.662" y2="562.204">
			<stop  offset="0" style="stop-color:#87390D"/>
			<stop  offset="0.1576" style="stop-color:#D95A1E"/>
			<stop  offset="0.2048" style="stop-color:#DA5E1D"/>
			<stop  offset="0.2568" style="stop-color:#DB6C1A"/>
			<stop  offset="0.311" style="stop-color:#DE8215"/>
			<stop  offset="0.3668" style="stop-color:#E2A10E"/>
			<stop  offset="0.4233" style="stop-color:#E7C806"/>
			<stop  offset="0.45" style="stop-color:#EADD01"/>
			<stop  offset="0.55" style="stop-color:#EADD01"/>
			<stop  offset="0.6216" style="stop-color:#E4B20B"/>
			<stop  offset="0.6964" style="stop-color:#DF8C13"/>
			<stop  offset="0.7656" style="stop-color:#DC7019"/>
			<stop  offset="0.8265" style="stop-color:#DA601D"/>
			<stop  offset="0.8727" style="stop-color:#D95A1E"/>
			<stop  offset="1" style="stop-color:#8C390C"/>
		</linearGradient>
		<path fill="url(#SVGID_10_)" d="M1583.003,640.058l0.783-84.133c-9.68,2.221-17.85,5.53-24.517,9.92l-0.543,58.315
			L1583.003,640.058z"/>
		<linearGradient id="SVGID_11_" gradientUnits="userSpaceOnUse" x1="1565.6129" y1="526.4412" x2="1578.2894" y2="504.4847">
			<stop  offset="0.1576" style="stop-color:#EE6321"/>
			<stop  offset="0.2028" style="stop-color:#EF6720"/>
			<stop  offset="0.2526" style="stop-color:#F0751D"/>
			<stop  offset="0.3045" style="stop-color:#F38B18"/>
			<stop  offset="0.3579" style="stop-color:#F6AA11"/>
			<stop  offset="0.412" style="stop-color:#FBD108"/>
			<stop  offset="0.45" style="stop-color:#FFF101"/>
			<stop  offset="0.55" style="stop-color:#FFF101"/>
			<stop  offset="0.5578" style="stop-color:#FEEC02"/>
			<stop  offset="0.6334" style="stop-color:#F9BB0D"/>
			<stop  offset="0.705" style="stop-color:#F49516"/>
			<stop  offset="0.7708" style="stop-color:#F1791C"/>
			<stop  offset="0.8288" style="stop-color:#EF6920"/>
			<stop  offset="0.8727" style="stop-color:#EE6321"/>
		</linearGradient>
		<polygon fill="url(#SVGID_11_)" points="1584.216,509.788 1559.94,493.891 1559.686,521.138 1583.963,537.035 		"/>
		<linearGradient id="SVGID_12_" gradientUnits="userSpaceOnUse" x1="1577.9314" y1="505.8611" x2="1584.1335" y2="495.9355">
			<stop  offset="0.1187" style="stop-color:#EE6321"/>
			<stop  offset="0.1699" style="stop-color:#EF6720"/>
			<stop  offset="0.2263" style="stop-color:#F0751D"/>
			<stop  offset="0.2851" style="stop-color:#F38B18"/>
			<stop  offset="0.3457" style="stop-color:#F6AA11"/>
			<stop  offset="0.4069" style="stop-color:#FBD108"/>
			<stop  offset="0.45" style="stop-color:#FFF101"/>
			<stop  offset="0.55" style="stop-color:#FFF101"/>
			<stop  offset="0.5609" style="stop-color:#FEEC02"/>
			<stop  offset="0.6663" style="stop-color:#F9BB0D"/>
			<stop  offset="0.7661" style="stop-color:#F49516"/>
			<stop  offset="0.8579" style="stop-color:#F1791C"/>
			<stop  offset="0.9387" style="stop-color:#EF6920"/>
			<stop  offset="1" style="stop-color:#EE6321"/>
		</linearGradient>
		<polygon fill="url(#SVGID_12_)" points="1602.125,507.906 1577.849,492.008 1559.94,493.891 1584.216,509.788 		"/>
		<linearGradient id="SVGID_13_" gradientUnits="userSpaceOnUse" x1="1497.5564" y1="697.4888" x2="1688.1479" y2="697.4888">
			<stop  offset="0" style="stop-color:#9C420F"/>
			<stop  offset="0.1576" style="stop-color:#EE6321"/>
			<stop  offset="0.2028" style="stop-color:#EF6720"/>
			<stop  offset="0.2526" style="stop-color:#F0751D"/>
			<stop  offset="0.3045" style="stop-color:#F38B18"/>
			<stop  offset="0.3579" style="stop-color:#F6AA11"/>
			<stop  offset="0.412" style="stop-color:#FBD108"/>
			<stop  offset="0.45" style="stop-color:#FFF101"/>
			<stop  offset="0.55" style="stop-color:#FFF101"/>
			<stop  offset="0.5578" style="stop-color:#FEEC02"/>
			<stop  offset="0.6334" style="stop-color:#F9BB0D"/>
			<stop  offset="0.705" style="stop-color:#F49516"/>
			<stop  offset="0.7708" style="stop-color:#F1791C"/>
			<stop  offset="0.8288" style="stop-color:#EF6920"/>
			<stop  offset="0.8727" style="stop-color:#EE6321"/>
			<stop  offset="1" style="stop-color:#A1420E"/>
		</linearGradient>
		<path fill="url(#SVGID_13_)" d="M1667.525,680.648c-4.589-4.702-10.08-9.121-16.458-13.262c-0.558-0.362-1.122-0.722-1.693-1.08
			c-0.218-0.136-0.434-0.273-0.654-0.408c-0.762-0.471-1.532-0.939-2.318-1.402c-0.028-0.017-0.057-0.033-0.086-0.05
			c-0.76-0.447-1.535-0.89-2.318-1.331c-0.236-0.133-0.474-0.264-0.712-0.397c-0.622-0.345-1.251-0.688-1.887-1.029
			c-0.226-0.121-0.45-0.243-0.678-0.364c-0.839-0.444-1.687-0.886-2.55-1.323c-0.127-0.064-0.257-0.127-0.384-0.191
			c-0.748-0.377-1.506-0.75-2.271-1.121c-0.265-0.128-0.532-0.256-0.8-0.384c-0.697-0.333-1.402-0.664-2.114-0.993
			c-0.223-0.103-0.443-0.207-0.667-0.309c-0.916-0.419-1.843-0.834-2.782-1.245c-0.201-0.088-0.405-0.174-0.607-0.262
			c-0.763-0.331-1.533-0.659-2.311-0.985c-0.291-0.122-0.582-0.243-0.874-0.364c-0.794-0.329-1.597-0.655-2.407-0.978
			c-0.198-0.079-0.394-0.159-0.593-0.239c-0.996-0.394-2.004-0.784-3.024-1.171c-0.255-0.097-0.515-0.193-0.772-0.289
			c-0.795-0.299-1.598-0.595-2.407-0.889c-0.314-0.114-0.629-0.228-0.945-0.342c-0.926-0.332-1.861-0.662-2.805-0.989
			c-0.137-0.047-0.272-0.096-0.41-0.143c-1.077-0.37-2.168-0.736-3.269-1.099c-0.303-0.1-0.609-0.199-0.914-0.298
			c-0.843-0.275-1.693-0.547-2.55-0.818c-0.325-0.103-0.65-0.206-0.978-0.308c-1.137-0.354-2.281-0.706-3.442-1.053l0.068-7.352
			l0.515-55.333l0.141-15.135l0.14-15.062l2.666-0.28c2.732-0.287,5.339-0.398,7.847-0.371c6.126,0.066,11.602,1.051,16.402,2.993
			c2.054,0.829,3.789,1.717,5.217,2.661c0.365,0.242,0.71,0.487,1.034,0.736c0.068,0.052,0.129,0.105,0.194,0.157
			c0.259,0.205,0.503,0.413,0.734,0.624c0.08,0.073,0.159,0.145,0.236,0.219c0.262,0.251,0.51,0.505,0.733,0.763
			c0.009,0.011,0.02,0.021,0.029,0.032c0.23,0.268,0.433,0.542,0.622,0.818c0.052,0.077,0.101,0.154,0.15,0.231
			c0.142,0.222,0.27,0.447,0.385,0.674c0.033,0.065,0.07,0.129,0.1,0.194c0.134,0.284,0.247,0.572,0.339,0.864
			c0.02,0.064,0.034,0.129,0.053,0.194c0.068,0.238,0.122,0.478,0.162,0.721c0.014,0.084,0.029,0.168,0.039,0.253
			c0.039,0.304,0.064,0.61,0.061,0.922c-0.005,0.529-0.966,1.694-2.891,3.483c-7.303,7.263-10.985,14.472-11.051,21.626
			c-0.08,8.625,2.398,15.18,7.434,19.682c0.362,0.325,0.736,0.632,1.117,0.929c0.118,0.092,0.239,0.178,0.358,0.268
			c0.273,0.204,0.549,0.401,0.831,0.591c4.732,3.184,10.735,4.395,18.012,3.63c8.632-0.907,15.58-4.353,20.839-10.337
			c5.259-5.984,7.931-13.55,8.016-22.697c0.143-15.381-7.193-27.623-22.024-36.731c-14.824-9.101-33.984-12.946-57.473-11.541
			l0.142-15.282l0.1-10.769l-17.909,1.882l-0.254,27.247c-25.562,5.735-45.363,16.419-59.405,32.074
			c-14.041,15.647-21.165,34.941-21.379,57.875c-0.198,21.216,6.14,38.697,19.02,52.449c0.717,0.765,1.464,1.517,2.224,2.263
			c0.206,0.202,0.415,0.403,0.624,0.603c0.658,0.631,1.33,1.256,2.02,1.874c0.133,0.12,0.262,0.241,0.397,0.36
			c0.811,0.717,1.647,1.423,2.502,2.122c0.216,0.177,0.438,0.352,0.657,0.527c0.706,0.567,1.427,1.127,2.162,1.682
			c0.211,0.159,0.419,0.32,0.632,0.478c0.91,0.675,1.84,1.341,2.794,1.998c0.197,0.136,0.4,0.269,0.599,0.404
			c6.167,4.185,13.23,8.002,21.182,11.456c7.356,3.195,15.461,6.083,24.344,8.653l-0.928,99.645
			c-10.29,0.951-18.974,0.003-26.051-2.831c-0.505-0.201-0.986-0.406-1.455-0.614c-0.146-0.065-0.285-0.131-0.428-0.196
			c-0.319-0.146-0.631-0.293-0.933-0.442c-0.152-0.075-0.302-0.151-0.45-0.227c-0.29-0.149-0.57-0.299-0.842-0.451
			c-0.127-0.07-0.256-0.14-0.379-0.211c-0.354-0.204-0.693-0.411-1.016-0.621c-3.4-2.208-5.09-4.693-5.064-7.454
			c0.001-0.131,0.492-0.993,1.468-2.582c0.967-1.575,2.41-3.863,4.33-6.869c3.865-6.033,5.829-12.097,5.885-18.201
			c0.079-8.481-2.594-14.891-8.007-19.225c-0.613-0.49-1.255-0.941-1.919-1.363c-0.149-0.095-0.299-0.187-0.45-0.278
			c-0.207-0.125-0.417-0.246-0.629-0.365c-0.154-0.086-0.309-0.171-0.465-0.254c-0.218-0.115-0.44-0.226-0.664-0.334
			c-0.157-0.076-0.313-0.153-0.472-0.226c-0.236-0.108-0.476-0.21-0.717-0.311c-0.152-0.064-0.303-0.13-0.457-0.191
			c-0.273-0.108-0.551-0.207-0.83-0.306c-0.129-0.046-0.255-0.095-0.386-0.139c-0.412-0.138-0.831-0.268-1.257-0.388
			c-0.041-0.011-0.083-0.02-0.123-0.032c-0.387-0.107-0.779-0.206-1.178-0.297c-0.151-0.035-0.307-0.063-0.46-0.096
			c-0.293-0.062-0.587-0.123-0.886-0.177c-0.18-0.032-0.364-0.06-0.547-0.089c-0.279-0.045-0.558-0.089-0.842-0.127
			c-0.196-0.026-0.396-0.049-0.594-0.072c-0.278-0.032-0.557-0.062-0.839-0.088c-0.206-0.019-0.414-0.035-0.623-0.05
			c-0.284-0.021-0.571-0.038-0.86-0.053c-0.211-0.01-0.423-0.02-0.637-0.027c-0.295-0.01-0.594-0.015-0.895-0.018
			c-0.213-0.002-0.426-0.005-0.642-0.005c-0.316,0.001-0.636,0.009-0.957,0.017c-0.206,0.005-0.41,0.009-0.618,0.017
			c-0.357,0.014-0.72,0.036-1.083,0.059c-0.179,0.011-0.354,0.019-0.534,0.032c-0.546,0.04-1.097,0.088-1.657,0.147
			c-8.514,0.895-15.401,4.465-20.662,10.709c-5.261,6.252-7.935,14.02-8.021,23.299c-0.009,0.975,0.011,1.936,0.058,2.885
			c0.016,0.318,0.051,0.626,0.073,0.94c0.043,0.625,0.084,1.252,0.151,1.866c0.041,0.37,0.103,0.73,0.153,1.095
			c0.075,0.547,0.144,1.096,0.238,1.634c0.067,0.383,0.155,0.756,0.232,1.135c0.104,0.507,0.203,1.016,0.325,1.514
			c0.094,0.385,0.208,0.762,0.313,1.142c0.133,0.479,0.261,0.959,0.411,1.43c0.121,0.381,0.26,0.754,0.393,1.13
			c0.161,0.456,0.32,0.914,0.498,1.362c0.148,0.375,0.313,0.741,0.473,1.11c0.19,0.437,0.378,0.875,0.584,1.304
			c0.176,0.366,0.366,0.725,0.553,1.085c0.218,0.419,0.437,0.838,0.671,1.25c0.203,0.357,0.419,0.707,0.634,1.058
			c0.246,0.402,0.495,0.803,0.757,1.198c0.23,0.346,0.472,0.687,0.714,1.028c0.275,0.387,0.554,0.772,0.845,1.151
			c0.256,0.334,0.522,0.664,0.791,0.993c0.304,0.372,0.614,0.743,0.934,1.108c0.283,0.322,0.574,0.641,0.869,0.958
			c0.334,0.358,0.674,0.713,1.023,1.063c0.309,0.311,0.625,0.618,0.947,0.923c0.363,0.344,0.734,0.684,1.113,1.021
			c0.335,0.298,0.675,0.593,1.022,0.885c0.393,0.331,0.797,0.656,1.205,0.98c0.361,0.285,0.725,0.569,1.098,0.848
			c0.423,0.317,0.858,0.628,1.297,0.937c0.386,0.272,0.774,0.544,1.173,0.811c0.713,0.477,1.434,0.951,2.186,1.41
			c9.806,5.984,22.323,9.945,37.519,11.909c7.488,0.968,15.615,1.459,24.411,1.452l-0.52,55.886l17.909-1.882l0.521-55.886
			c27.839-5.178,49.578-16.037,65.216-32.583c15.632-16.545,23.565-37.148,23.795-61.815
			C1688.347,713.03,1681.474,694.946,1667.525,680.648z M1551.467,572.139c2.318-2.302,4.922-4.397,7.802-6.294
			c6.667-4.39,14.837-7.699,24.517-9.92l-0.783,84.133c-0.858-0.202-1.698-0.41-2.529-0.621c-0.248-0.063-0.492-0.127-0.738-0.191
			c-0.601-0.156-1.196-0.315-1.783-0.476c-0.249-0.068-0.499-0.137-0.746-0.206c-0.701-0.197-1.392-0.397-2.072-0.601
			c-0.094-0.028-0.191-0.055-0.284-0.084c-0.767-0.232-1.517-0.47-2.258-0.711c-0.212-0.069-0.419-0.14-0.628-0.209
			c-0.541-0.18-1.075-0.363-1.602-0.548c-0.226-0.08-0.453-0.159-0.677-0.24c-0.575-0.207-1.141-0.417-1.698-0.63
			c-0.132-0.051-0.268-0.1-0.399-0.151c-0.677-0.263-1.341-0.531-1.992-0.803c-0.171-0.072-0.337-0.145-0.506-0.217
			c-0.486-0.207-0.965-0.416-1.435-0.629c-0.203-0.091-0.404-0.183-0.604-0.275c-0.475-0.219-0.941-0.442-1.4-0.667
			c-0.144-0.071-0.292-0.14-0.435-0.212c-0.588-0.294-1.164-0.592-1.726-0.894c-0.128-0.069-0.251-0.14-0.378-0.21
			c-0.438-0.24-0.868-0.483-1.29-0.728c-0.171-0.1-0.34-0.2-0.508-0.3c-0.396-0.237-0.785-0.477-1.166-0.719
			c-0.137-0.087-0.277-0.173-0.412-0.261c-2.187-1.42-4.126-2.926-5.81-4.523c-1.465-1.389-2.762-2.881-3.909-4.463
			c-4.221-5.822-6.3-12.949-6.222-21.395C1539.894,588.751,1543.779,579.768,1551.467,572.139z M1635.671,789.901
			c-8.459,8.435-20.575,14.813-36.35,19.114l0.242-25.935l0.609-65.353c6.824,2.113,12.843,4.244,18.079,6.391
			c6.397,2.624,11.612,5.275,15.639,7.953c0.192,0.128,0.379,0.256,0.566,0.384c0.333,0.228,0.658,0.456,0.974,0.685
			c0.179,0.13,0.359,0.26,0.532,0.39c0.322,0.241,0.632,0.482,0.935,0.723c0.142,0.113,0.288,0.225,0.426,0.338
			c0.429,0.352,0.844,0.705,1.233,1.058c6.728,6.114,10.045,14.144,9.953,24.088C1648.399,771.408,1644.123,781.46,1635.671,789.901
			z"/>
		<linearGradient id="SVGID_14_" gradientUnits="userSpaceOnUse" x1="1493.0237" y1="666.604" x2="1572.6781" y2="528.6385">
			<stop  offset="0" style="stop-color:#9C420F"/>
			<stop  offset="0.1576" style="stop-color:#EE6321"/>
			<stop  offset="0.2028" style="stop-color:#EF6720"/>
			<stop  offset="0.2526" style="stop-color:#F0751D"/>
			<stop  offset="0.3045" style="stop-color:#F38B18"/>
			<stop  offset="0.3579" style="stop-color:#F6AA11"/>
			<stop  offset="0.412" style="stop-color:#FBD108"/>
			<stop  offset="0.45" style="stop-color:#FFF101"/>
			<stop  offset="0.55" style="stop-color:#FFF101"/>
			<stop  offset="0.5578" style="stop-color:#FEEC02"/>
			<stop  offset="0.6334" style="stop-color:#F9BB0D"/>
			<stop  offset="0.705" style="stop-color:#F49516"/>
			<stop  offset="0.7708" style="stop-color:#F1791C"/>
			<stop  offset="0.8288" style="stop-color:#EF6920"/>
			<stop  offset="0.8727" style="stop-color:#EE6321"/>
			<stop  offset="1" style="stop-color:#CC5312"/>
		</linearGradient>
		<path fill="url(#SVGID_14_)" d="M1533.416,689.344c-0.214-0.158-0.421-0.319-0.632-0.478c-0.735-0.555-1.456-1.115-2.162-1.682
			c-0.219-0.176-0.44-0.35-0.657-0.527c-0.854-0.699-1.691-1.406-2.502-2.122c-0.135-0.119-0.263-0.241-0.397-0.36
			c-0.69-0.618-1.363-1.243-2.02-1.874c-0.209-0.201-0.418-0.401-0.624-0.603c-0.761-0.746-1.508-1.499-2.224-2.263
			c-12.88-13.752-19.217-31.232-19.02-52.449c0.214-22.934,7.338-42.228,21.379-57.875c14.042-15.654,33.843-26.339,59.405-32.074
			l-24.276-15.898c-25.562,5.735-45.363,16.42-59.405,32.074c-14.041,15.647-21.165,34.941-21.379,57.875
			c-0.198,21.216,6.14,38.697,19.02,52.448c4.481,4.782,9.83,9.208,16.046,13.279l24.276,15.898
			c-0.487-0.319-0.959-0.644-1.435-0.967c-0.199-0.135-0.402-0.268-0.599-0.404C1535.257,690.685,1534.326,690.018,1533.416,689.344
			z"/>
	</g>
</g>
</svg>
